<svg width="42" height="42" viewBox="0 0 42 42" fill="none" xmlns="http://www.w3.org/2000/svg">
<path d="M35.5618 32.5106C35.0691 31.3617 34.1196 30.4398 32.9567 29.9813L25.7994 27.159C25.7236 27.1295 25.6586 27.0777 25.6129 27.0105C25.5671 26.9433 25.5428 26.8638 25.5431 26.7825V24.5584C27.0757 23.4088 28.1857 21.9028 28.8483 20.0718C29.0722 19.4531 29.2446 18.7961 29.366 18.1047C30.9263 18.0322 32.1735 16.7403 32.1735 15.1624C32.1735 14.842 32.1198 14.5237 32.0182 14.2217C32.4953 13.8972 32.8092 13.3502 32.8092 12.7311V12.5802C32.8092 11.5869 32.0011 10.7787 31.0077 10.7787H30.5576V9.41707C30.5576 6.19232 28.8099 3.25434 25.9869 1.70942C25.9204 0.755729 25.1239 0 24.1536 0C23.5767 0 23.0613 0.26736 22.7239 0.684345C22.4084 0.650424 22.0913 0.63338 21.7739 0.633285H20.4347C20.0592 0.633285 19.6811 0.657245 19.311 0.704587C19.2878 0.707561 19.2653 0.71194 19.2431 0.71731C18.9058 0.328912 18.4089 0.0826204 17.8554 0.0826204C16.8725 0.0826204 16.0674 0.857848 16.0192 1.82897C15.9938 1.83979 15.9688 1.85177 15.9445 1.86623C13.2962 3.44428 11.651 6.33756 11.651 9.41699V10.7786H11.0425C10.0491 10.7786 9.24095 11.5868 9.24095 12.5801V12.731C9.24095 13.3693 9.57498 13.9308 10.0771 14.2509C9.98138 14.5452 9.93286 14.8529 9.93339 15.1624C9.93339 16.7068 11.1282 17.9765 12.6419 18.0978C12.7617 18.7819 12.9309 19.4322 13.151 20.0452C13.8118 21.8867 14.9237 23.4005 16.4616 24.5553V26.7825C16.4619 26.8638 16.4376 26.9433 16.3919 27.0105C16.3461 27.0777 16.2811 27.1294 16.2054 27.159L9.04803 29.9813C7.88515 30.4398 6.93567 31.3617 6.44293 32.5106C5.33259 35.0999 4.76953 37.8412 4.76953 40.6585C4.76953 41.3982 5.37134 42 6.11104 42H26.9016C27.2438 42 27.5212 41.7226 27.5212 41.3803C27.5212 41.0381 27.2438 40.7607 26.9016 40.7607H21.2105V39.2339H22.5285C23.0871 39.2339 23.5414 38.7795 23.5414 38.221V36.6973C23.5414 36.1388 23.0871 35.6844 22.5285 35.6844H21.2105V33.9378H24.1196C25.455 33.9378 26.5415 32.8514 26.5415 31.5158V28.7837L27.6123 29.206V32.4013C27.6123 33.3749 27.9808 34.3008 28.6501 35.0082L29.5874 35.999C29.8253 36.2497 29.9577 36.5823 29.9571 36.9279V40.7607H29.3802C29.038 40.7607 28.7606 41.0381 28.7606 41.3803C28.7606 41.7226 29.038 42 29.3802 42H35.8939C36.6336 42 37.2353 41.3982 37.2353 40.6585C37.2352 37.8411 36.6722 35.0997 35.5618 32.5106ZM17.7009 25.3442C18.7331 25.8756 19.8686 26.1423 21.0044 26.1423C22.1388 26.1423 23.2727 25.8762 24.3038 25.3464V26.7471C24.2928 26.7587 24.2823 26.7707 24.2722 26.7831L23.9357 27.2071C23.2211 28.1075 22.152 28.624 21.0023 28.624C19.8528 28.624 18.7835 28.1075 18.0689 27.2071L17.7271 26.7763C17.7187 26.7658 17.7097 26.7563 17.7009 26.7465V25.3442ZM29.5272 16.8408C29.5882 16.1043 29.5971 15.334 29.5534 14.5324H30.814C30.8939 14.7328 30.9347 14.9466 30.9342 15.1623C30.9342 16.0009 30.3256 16.6987 29.5272 16.8408ZM29.3184 9.41699V10.7786H25.9921V3.16097C28.0623 4.55544 29.3184 6.88335 29.3184 9.41699ZM23.5544 10.7786V1.92109C23.5544 1.59069 23.8232 1.32193 24.1536 1.32193C24.484 1.32193 24.7528 1.59069 24.7528 1.92109V10.7786H23.5544ZM20.4347 1.87259H21.7739C21.9542 1.87259 22.1351 1.87904 22.3151 1.89176V10.7786H19.6938V1.92109C19.6938 1.91696 19.6936 1.91291 19.6935 1.90878C19.9398 1.88478 20.1872 1.8727 20.4347 1.87259ZM12.8903 9.41699C12.8903 6.99729 14.0736 4.71192 16.0169 3.30209V5.9338C16.0169 6.09814 16.0822 6.25575 16.1984 6.37196C16.3146 6.48817 16.4722 6.55345 16.6365 6.55345C16.8009 6.55345 16.9585 6.48817 17.0747 6.37196C17.1909 6.25575 17.2562 6.09814 17.2562 5.9338V1.92109C17.2562 1.59069 17.525 1.32193 17.8554 1.32193C18.1858 1.32193 18.4546 1.59069 18.4546 1.92109V10.7786H17.2563V8.41233C17.2563 8.24798 17.191 8.09037 17.0748 7.97417C16.9586 7.85796 16.801 7.79267 16.6366 7.79267C16.4723 7.79267 16.3147 7.85796 16.1985 7.97417C16.0823 8.09037 16.017 8.24798 16.017 8.41233V10.7786H12.8903V9.41699ZM10.4803 12.5801C10.4804 12.4311 10.5397 12.2882 10.6451 12.1827C10.7505 12.0773 10.8934 12.0181 11.0425 12.0179H31.0078C31.1568 12.0181 31.2998 12.0773 31.4052 12.1827C31.5106 12.2882 31.5698 12.4311 31.57 12.5801V12.731C31.5698 12.88 31.5106 13.0229 31.4052 13.1283C31.2998 13.2337 31.1568 13.293 31.0078 13.2932H11.0425C10.8934 13.293 10.7505 13.2337 10.6451 13.1283C10.5397 13.0229 10.4804 12.88 10.4803 12.731V12.5801ZM11.1727 15.1623C11.1727 14.9437 11.2152 14.7325 11.2949 14.5324H12.4552C12.4118 15.3263 12.4205 16.0895 12.4799 16.8197C11.7312 16.6392 11.1727 15.9656 11.1727 15.1623ZM13.697 14.5324H28.3118C28.5686 18.9092 27.1859 22.0884 24.1978 23.982C22.258 25.2114 19.7509 25.2113 17.8111 23.982C14.8225 22.0881 13.44 18.9092 13.697 14.5324ZM6.00875 40.6585C6.00875 38.0101 6.53802 35.4331 7.58185 32.999C7.94505 32.152 8.64517 31.4723 9.50252 31.1342L13.1562 29.6934V32.4013C13.1562 33.0569 12.9081 33.6803 12.4576 34.1566L11.5204 35.1474C11.0644 35.6279 10.8106 36.2654 10.8116 36.9279V40.7607H6.11104C6.08393 40.7607 6.05794 40.7499 6.03877 40.7307C6.01959 40.7116 6.0088 40.6856 6.00875 40.6585ZM22.3021 37.9946H17.5403V36.9237H22.3021V37.9946ZM17.3139 35.6844C16.7554 35.6844 16.301 36.1388 16.301 36.6973V38.221C16.301 38.7795 16.7554 39.2339 17.3139 39.2339H19.9712V40.7607H12.0509V36.9279C12.0509 36.581 12.1822 36.2511 12.4207 35.999L13.3578 35.0082C14.0255 34.3047 14.3971 33.3713 14.3956 32.4013C14.3956 32.4013 14.3944 29.2182 14.3937 29.2055L15.4665 28.7825V31.5158C15.4665 32.8513 16.5529 33.9378 17.8884 33.9378H19.9712V35.6844H17.3139ZM24.1196 32.6985H17.8884C17.2363 32.6985 16.7058 32.168 16.7058 31.5158V28.2918C16.8623 28.2248 17.0075 28.1341 17.1363 28.0228C18.0871 29.1927 19.4922 29.8634 21.0024 29.8634C22.5127 29.8634 23.9178 29.1927 24.8686 28.0228C24.9982 28.1349 25.1446 28.2261 25.3023 28.2932V31.5158C25.3022 32.1679 24.7716 32.6985 24.1196 32.6985ZM35.8938 40.7607H31.1964V36.9279C31.1964 36.2628 30.9447 35.6305 30.4877 35.1474L29.5504 34.1566C29.1009 33.6829 28.8507 33.0544 28.8517 32.4013V29.6947L32.5022 31.1342C33.3596 31.4723 34.0597 32.152 34.423 32.999C35.4667 35.433 35.996 38.01 35.996 40.6585C35.9959 40.6856 35.9851 40.7115 35.966 40.7307C35.9468 40.7498 35.9209 40.7606 35.8938 40.7607Z" fill="#00539E"/>
</svg>
