<svg width="42" height="28" viewBox="0 0 42 28" fill="none" xmlns="http://www.w3.org/2000/svg">
<g clip-path="url(#clip0_2831_75424)">
<path d="M40.0718 0.613281H1.93215C1.20617 0.613281 0.617188 1.20226 0.617188 1.92824V25.6007C0.617188 26.3267 1.20617 26.9157 1.93215 26.9157H40.0718C40.7977 26.9157 41.3867 26.3267 41.3867 25.6007V1.92824C41.3867 1.20226 40.7977 0.613281 40.0718 0.613281Z" stroke="#00539E" stroke-width="1.23047" stroke-linecap="round" stroke-linejoin="round"/>
<path d="M21.6562 11.8867H41.3831" stroke="#00539E" stroke-width="1.23047" stroke-linecap="round" stroke-linejoin="round"/>
<path d="M21.6562 8.12891H41.3831" stroke="#00539E" stroke-width="1.23047" stroke-linecap="round" stroke-linejoin="round"/>
<path d="M39.4102 4.37109H41.383" stroke="#00539E" stroke-width="1.23047" stroke-linecap="round" stroke-linejoin="round"/>
<path d="M21.6562 4.37109H36.7804" stroke="#00539E" stroke-width="1.23047" stroke-linecap="round" stroke-linejoin="round"/>
<path d="M0.617188 23.1602H41.3867" stroke="#00539E" stroke-width="1.23047" stroke-linecap="round" stroke-linejoin="round"/>
<path d="M5.875 19.4023H41.3847" stroke="#00539E" stroke-width="1.23047" stroke-linecap="round" stroke-linejoin="round"/>
<path d="M0.617188 19.4023H3.24711" stroke="#00539E" stroke-width="1.23047" stroke-linecap="round" stroke-linejoin="round"/>
<path d="M0.617188 15.6445H41.3867" stroke="#00539E" stroke-width="1.23047" stroke-linecap="round" stroke-linejoin="round"/>
<path d="M21.6562 15.4256V0.613281" stroke="#00539E" stroke-width="1.23047" stroke-linecap="round" stroke-linejoin="round"/>
<path d="M3.24609 2.88672H3.25266" stroke="#00539E" stroke-width="1.23047" stroke-linecap="round" stroke-linejoin="round"/>
<path d="M3.24609 8.14844H3.25266" stroke="#00539E" stroke-width="1.23047" stroke-linecap="round" stroke-linejoin="round"/>
<path d="M3.24609 13.4102H3.25266" stroke="#00539E" stroke-width="1.23047" stroke-linecap="round" stroke-linejoin="round"/>
<path d="M3.24609 5.51953H3.25266" stroke="#00539E" stroke-width="1.23047" stroke-linecap="round" stroke-linejoin="round"/>
<path d="M3.24609 10.7812H3.25266" stroke="#00539E" stroke-width="1.23047" stroke-linecap="round" stroke-linejoin="round"/>
<path d="M19.0273 2.88672H19.0339" stroke="#00539E" stroke-width="1.23047" stroke-linecap="round" stroke-linejoin="round"/>
<path d="M19.0273 8.14844H19.0339" stroke="#00539E" stroke-width="1.23047" stroke-linecap="round" stroke-linejoin="round"/>
<path d="M19.0273 13.4102H19.0339" stroke="#00539E" stroke-width="1.23047" stroke-linecap="round" stroke-linejoin="round"/>
<path d="M19.0273 5.51953H19.0339" stroke="#00539E" stroke-width="1.23047" stroke-linecap="round" stroke-linejoin="round"/>
<path d="M19.0273 10.7812H19.0339" stroke="#00539E" stroke-width="1.23047" stroke-linecap="round" stroke-linejoin="round"/>
<path d="M7.19141 2.88672H7.19797" stroke="#00539E" stroke-width="1.23047" stroke-linecap="round" stroke-linejoin="round"/>
<path d="M7.19141 8.14844H7.19797" stroke="#00539E" stroke-width="1.23047" stroke-linecap="round" stroke-linejoin="round"/>
<path d="M7.19141 13.4102H7.19797" stroke="#00539E" stroke-width="1.23047" stroke-linecap="round" stroke-linejoin="round"/>
<path d="M7.19141 5.51953H7.19797" stroke="#00539E" stroke-width="1.23047" stroke-linecap="round" stroke-linejoin="round"/>
<path d="M7.19141 10.7812H7.19797" stroke="#00539E" stroke-width="1.23047" stroke-linecap="round" stroke-linejoin="round"/>
<path d="M5.21875 4.20312H5.22531" stroke="#00539E" stroke-width="1.23047" stroke-linecap="round" stroke-linejoin="round"/>
<path d="M5.21875 9.46484H5.22531" stroke="#00539E" stroke-width="1.23047" stroke-linecap="round" stroke-linejoin="round"/>
<path d="M5.21875 6.83203H5.22531" stroke="#00539E" stroke-width="1.23047" stroke-linecap="round" stroke-linejoin="round"/>
<path d="M5.21875 12.0938H5.22531" stroke="#00539E" stroke-width="1.23047" stroke-linecap="round" stroke-linejoin="round"/>
<path d="M11.1367 2.88672H11.1433" stroke="#00539E" stroke-width="1.23047" stroke-linecap="round" stroke-linejoin="round"/>
<path d="M11.1367 8.14844H11.1433" stroke="#00539E" stroke-width="1.23047" stroke-linecap="round" stroke-linejoin="round"/>
<path d="M11.1367 13.4102H11.1433" stroke="#00539E" stroke-width="1.23047" stroke-linecap="round" stroke-linejoin="round"/>
<path d="M11.1367 5.51953H11.1433" stroke="#00539E" stroke-width="1.23047" stroke-linecap="round" stroke-linejoin="round"/>
<path d="M11.1367 10.7812H11.1433" stroke="#00539E" stroke-width="1.23047" stroke-linecap="round" stroke-linejoin="round"/>
<path d="M9.16406 4.20312H9.17063" stroke="#00539E" stroke-width="1.23047" stroke-linecap="round" stroke-linejoin="round"/>
<path d="M9.16406 9.46484H9.17063" stroke="#00539E" stroke-width="1.23047" stroke-linecap="round" stroke-linejoin="round"/>
<path d="M9.16406 6.83203H9.17063" stroke="#00539E" stroke-width="1.23047" stroke-linecap="round" stroke-linejoin="round"/>
<path d="M9.16406 12.0938H9.17063" stroke="#00539E" stroke-width="1.23047" stroke-linecap="round" stroke-linejoin="round"/>
<path d="M15.0742 2.88672H15.0808" stroke="#00539E" stroke-width="1.23047" stroke-linecap="round" stroke-linejoin="round"/>
<path d="M15.0742 8.14844H15.0808" stroke="#00539E" stroke-width="1.23047" stroke-linecap="round" stroke-linejoin="round"/>
<path d="M15.0742 13.4102H15.0808" stroke="#00539E" stroke-width="1.23047" stroke-linecap="round" stroke-linejoin="round"/>
<path d="M15.0742 5.51953H15.0808" stroke="#00539E" stroke-width="1.23047" stroke-linecap="round" stroke-linejoin="round"/>
<path d="M15.0742 10.7812H15.0808" stroke="#00539E" stroke-width="1.23047" stroke-linecap="round" stroke-linejoin="round"/>
<path d="M13.1016 4.20312H13.1081" stroke="#00539E" stroke-width="1.23047" stroke-linecap="round" stroke-linejoin="round"/>
<path d="M13.1016 9.46484H13.1081" stroke="#00539E" stroke-width="1.23047" stroke-linecap="round" stroke-linejoin="round"/>
<path d="M13.1016 6.83203H13.1081" stroke="#00539E" stroke-width="1.23047" stroke-linecap="round" stroke-linejoin="round"/>
<path d="M13.1016 12.0938H13.1081" stroke="#00539E" stroke-width="1.23047" stroke-linecap="round" stroke-linejoin="round"/>
<path d="M17.0547 4.20312H17.0613" stroke="#00539E" stroke-width="1.23047" stroke-linecap="round" stroke-linejoin="round"/>
<path d="M17.0547 9.46484H17.0613" stroke="#00539E" stroke-width="1.23047" stroke-linecap="round" stroke-linejoin="round"/>
<path d="M17.0547 6.83203H17.0613" stroke="#00539E" stroke-width="1.23047" stroke-linecap="round" stroke-linejoin="round"/>
<path d="M17.0547 12.0938H17.0613" stroke="#00539E" stroke-width="1.23047" stroke-linecap="round" stroke-linejoin="round"/>
</g>
<defs>
<clipPath id="clip0_2831_75424">
<rect width="42" height="27.5337" fill="white"/>
</clipPath>
</defs>
</svg>
