<svg width="42" height="42" viewBox="0 0 42 42" fill="none" xmlns="http://www.w3.org/2000/svg">
<path d="M8.98734 29.6337H6.76134C5.90422 29.6337 5.08214 29.2935 4.47575 28.6877C3.86935 28.0819 3.52823 27.2602 3.52734 26.4031V20.676C3.52823 19.8194 3.86889 18.9982 4.47456 18.3925C5.08023 17.7869 5.90144 17.4462 6.75798 17.4453H8.98398C9.16221 17.4453 9.33314 17.5161 9.45916 17.6421C9.58518 17.7682 9.65598 17.9391 9.65598 18.1173V28.9617C9.65599 29.1394 9.58565 29.3098 9.46035 29.4357C9.33505 29.5616 9.16499 29.6328 8.98734 29.6337ZM6.76134 18.7893C6.26067 18.7893 5.78045 18.988 5.4261 19.3417C5.07175 19.6954 4.87223 20.1753 4.87134 20.676V26.4031C4.87223 26.9032 5.07129 27.3825 5.42491 27.7361C5.77853 28.0898 6.25789 28.2888 6.75798 28.2897H8.31198V18.7893H6.76134Z" fill="#00539E"/>
<path d="M11.8566 29.6337H8.98841C8.81018 29.6337 8.63926 29.5629 8.51323 29.4369C8.38721 29.3109 8.31641 29.1399 8.31641 28.9617V18.1173C8.31641 17.9391 8.38721 17.7682 8.51323 17.6421C8.63926 17.5161 8.81018 17.4453 8.98841 17.4453H11.8587C12.0369 17.4453 12.2078 17.5161 12.3339 17.6421C12.4599 17.7682 12.5307 17.9391 12.5307 18.1173V28.9617C12.5307 29.0501 12.5132 29.1377 12.4793 29.2194C12.4454 29.301 12.3957 29.3752 12.3331 29.4376C12.2705 29.5001 12.1962 29.5495 12.1144 29.5832C12.0326 29.6168 11.945 29.634 11.8566 29.6337ZM9.65831 28.2897H11.1846V18.7893H9.66041L9.65831 28.2897ZM35.2418 29.6337H33.0158C32.8375 29.6337 32.6666 29.5629 32.5406 29.4369C32.4146 29.3109 32.3438 29.1399 32.3438 28.9617V18.1173C32.3438 17.9391 32.4146 17.7682 32.5406 17.6421C32.6666 17.5161 32.8375 17.4453 33.0158 17.4453H35.2418C36.0983 17.4462 36.9195 17.7869 37.5252 18.3925C38.1309 18.9982 38.4715 19.8194 38.4724 20.676V26.4031C38.4715 27.2596 38.1309 28.0808 37.5252 28.6865C36.9195 29.2922 36.0983 29.6328 35.2418 29.6337ZM33.6878 28.2897H35.2418C35.7419 28.2888 36.2212 28.0898 36.5748 27.7361C36.9285 27.3825 37.1275 26.9032 37.1284 26.4031V20.676C37.1275 20.1759 36.9285 19.6965 36.5748 19.3429C36.2212 18.9893 35.7419 18.7902 35.2418 18.7893H33.6878V28.2897Z" fill="#00539E"/>
<path d="M33.0149 29.6337H30.1447C29.9664 29.6337 29.7955 29.5629 29.6695 29.4369C29.5435 29.3109 29.4727 29.1399 29.4727 28.9617V18.1173C29.4727 17.9391 29.5435 17.7682 29.6695 17.6421C29.7955 17.5161 29.9664 17.4453 30.1447 17.4453H33.0149C33.1932 17.4453 33.3641 17.5161 33.4901 17.6421C33.6161 17.7682 33.6869 17.9391 33.6869 18.1173V28.9617C33.6869 29.1399 33.6161 29.3109 33.4901 29.4369C33.3641 29.5629 33.1932 29.6337 33.0149 29.6337ZM30.8167 28.2897H32.3429V18.7893H30.8167V28.2897Z" fill="#00539E"/>
<path d="M34.7644 18.7887H31.5258C31.3476 18.7887 31.1767 18.7179 31.0506 18.5918C30.9246 18.4658 30.8538 18.2949 30.8538 18.1167C30.8538 12.81 26.5366 8.49236 21.2299 8.49236C15.9232 8.49236 11.6061 12.81 11.6061 18.1167C11.6061 18.2949 11.5353 18.4658 11.4092 18.5918C11.2832 18.7179 11.1123 18.7887 10.9341 18.7887H7.69544C7.51721 18.7887 7.34629 18.7179 7.22026 18.5918C7.09424 18.4658 7.02344 18.2949 7.02344 18.1167C7.02344 14.3489 8.52019 10.7354 11.1844 8.07114C13.8487 5.40691 17.4621 3.91016 21.2299 3.91016C24.9977 3.91016 28.6112 5.40691 31.2754 8.07114C33.9397 10.7354 35.4364 14.3489 35.4364 18.1167C35.4364 18.2949 35.3656 18.4658 35.2396 18.5918C35.1136 18.7179 34.9427 18.7887 34.7644 18.7887ZM32.1777 17.4447H34.0752C33.9027 14.1543 32.4741 11.0556 30.0841 8.78756C27.6941 6.51954 24.5248 5.25516 21.2299 5.25516C17.9351 5.25516 14.7658 6.51954 12.3758 8.78756C9.98573 11.0556 8.55716 14.1543 8.38466 17.4447H10.2822C10.6304 11.7083 15.4062 7.14836 21.2299 7.14836C27.0537 7.14836 31.8295 11.7083 32.1777 17.4447ZM23.6046 36.0889C23.433 36.0885 23.2681 36.0225 23.1436 35.9044C23.0191 35.7863 22.9445 35.625 22.9351 35.4537C22.9257 35.2824 22.9822 35.1139 23.093 34.9829C23.2039 34.8519 23.3606 34.7682 23.5311 34.7491C31.16 33.9007 32.3482 28.8691 32.3591 28.8174C32.4029 28.6492 32.5101 28.5046 32.6583 28.4138C32.8065 28.3229 32.9841 28.2931 33.1538 28.3304C33.3235 28.3678 33.4722 28.4694 33.5686 28.614C33.665 28.7586 33.7016 28.9349 33.6708 29.106C33.6569 29.1698 33.3133 30.6818 31.8858 32.2942C31.0592 33.2278 30.0336 34.0116 28.8382 34.6231C27.3649 35.3757 25.629 35.868 23.6781 36.0847C23.6537 36.0875 23.6292 36.0889 23.6046 36.0889Z" fill="#00539E"/>
<path d="M21.7307 38.0899H20.7227C20.0472 38.0899 19.3994 37.8215 18.9217 37.3439C18.4441 36.8663 18.1758 36.2184 18.1758 35.543C18.1758 34.8675 18.4441 34.2197 18.9217 33.7421C19.3994 33.2644 20.0472 32.9961 20.7227 32.9961H21.7307C22.4061 32.9961 23.0539 33.2644 23.5316 33.7421C24.0092 34.2197 24.2775 34.8675 24.2775 35.543C24.2775 36.2184 24.0092 36.8663 23.5316 37.3439C23.0539 37.8215 22.4061 38.0899 21.7307 38.0899ZM20.7227 34.3401C20.4036 34.3401 20.0977 34.4668 19.8721 34.6924C19.6465 34.918 19.5198 35.224 19.5198 35.543C19.5198 35.862 19.6465 36.168 19.8721 36.3935C20.0977 36.6191 20.4036 36.7459 20.7227 36.7459H21.7307C22.0497 36.7459 22.3556 36.6191 22.5812 36.3935C22.8068 36.168 22.9335 35.862 22.9335 35.543C22.9335 35.224 22.8068 34.918 22.5812 34.6924C22.3556 34.4668 22.0497 34.3401 21.7307 34.3401H20.7227Z" fill="#00539E"/>
</svg>
