<svg width="43" height="40" viewBox="0 0 43 40" fill="none" xmlns="http://www.w3.org/2000/svg">
<g clip-path="url(#clip0_2831_75081)">
<path d="M0.480469 22.9961V39.3776" stroke="#00539E" stroke-width="0.874763" stroke-miterlimit="10" stroke-linecap="round"/>
<path d="M9.20244 21.9593V19.125H1.85156V21.9593" stroke="#00539E" stroke-width="0.874763" stroke-miterlimit="10" stroke-linecap="round"/>
<path d="M8.00796 19.0571V17.1151C8.00796 16.5261 7.53267 16.0508 6.94367 16.0508H4.16194C3.57294 16.0508 3.09766 16.5261 3.09766 17.1151V19.0571" stroke="#00539E" stroke-width="0.874763" stroke-miterlimit="10" stroke-linecap="round"/>
<path d="M7.65625 26.8714V21.9727H9.65944C10.1464 21.9727 10.5429 22.3663 10.5429 22.8562V32.8548" stroke="#00539E" stroke-width="0.874763" stroke-miterlimit="10" stroke-linecap="round"/>
<path d="M3.36717 26.8714V21.9727H1.36397C0.877025 21.9727 0.480469 22.3663 0.480469 22.8562V39.4243" stroke="#00539E" stroke-width="0.874763" stroke-miterlimit="10" stroke-linecap="round"/>
<path d="M33.5156 15.4671V13.3909C33.5156 12.974 33.8539 12.6328 34.2737 12.6328H38.84C39.2569 12.6328 39.5981 12.9711 39.5981 13.3909V15.4671" stroke="#00539E" stroke-width="0.874763" stroke-miterlimit="10" stroke-linecap="round"/>
<path d="M27.707 24.5898H33.5096" stroke="#00539E" stroke-width="0.874763" stroke-miterlimit="10" stroke-linecap="round"/>
<path d="M17.3398 23.3398V24.0079" stroke="#00539E" stroke-width="0.874763" stroke-miterlimit="10"/>
<path d="M17.3398 25.7344V26.4024" stroke="#00539E" stroke-width="0.874763" stroke-miterlimit="10"/>
<path d="M17.3398 28.0117V28.6798" stroke="#00539E" stroke-width="0.874763" stroke-miterlimit="10"/>
<path d="M17.3398 20.9453V21.6134" stroke="#00539E" stroke-width="0.874763" stroke-miterlimit="10"/>
<path d="M21.0938 23.3398V24.0079" stroke="#00539E" stroke-width="0.874763" stroke-miterlimit="10"/>
<path d="M21.0938 25.7344V26.4024" stroke="#00539E" stroke-width="0.874763" stroke-miterlimit="10"/>
<path d="M21.0938 28.0117V28.6798" stroke="#00539E" stroke-width="0.874763" stroke-miterlimit="10"/>
<path d="M21.0938 20.9453V21.6134" stroke="#00539E" stroke-width="0.874763" stroke-miterlimit="10"/>
<path d="M24.8516 23.3398V24.0079" stroke="#00539E" stroke-width="0.874763" stroke-miterlimit="10"/>
<path d="M24.8516 25.7344V26.4024" stroke="#00539E" stroke-width="0.874763" stroke-miterlimit="10"/>
<path d="M24.8516 28.0117V28.6798" stroke="#00539E" stroke-width="0.874763" stroke-miterlimit="10"/>
<path d="M24.8516 20.9453V21.6134" stroke="#00539E" stroke-width="0.874763" stroke-miterlimit="10"/>
<path d="M17.3398 32.4492V33.1173" stroke="#00539E" stroke-width="0.874763" stroke-miterlimit="10"/>
<path d="M17.3398 34.8438V35.5118" stroke="#00539E" stroke-width="0.874763" stroke-miterlimit="10"/>
<path d="M17.3398 37.2383V37.9063" stroke="#00539E" stroke-width="0.874763" stroke-miterlimit="10"/>
<path d="M17.3398 30.0586V30.7267" stroke="#00539E" stroke-width="0.874763" stroke-miterlimit="10"/>
<path d="M36.5859 23.3398V24.0079" stroke="#00539E" stroke-width="0.874763" stroke-miterlimit="10"/>
<path d="M36.5859 25.7344V26.4024" stroke="#00539E" stroke-width="0.874763" stroke-miterlimit="10"/>
<path d="M36.5859 28.0117V28.6798" stroke="#00539E" stroke-width="0.874763" stroke-miterlimit="10"/>
<path d="M36.5859 20.9453V21.6134" stroke="#00539E" stroke-width="0.874763" stroke-miterlimit="10"/>
<path d="M36.5859 32.4492V33.1173" stroke="#00539E" stroke-width="0.874763" stroke-miterlimit="10"/>
<path d="M36.5859 34.8438V35.5118" stroke="#00539E" stroke-width="0.874763" stroke-miterlimit="10"/>
<path d="M36.5859 37.2383V37.9063" stroke="#00539E" stroke-width="0.874763" stroke-miterlimit="10"/>
<path d="M36.5859 30.0586V30.7267" stroke="#00539E" stroke-width="0.874763" stroke-miterlimit="10"/>
<path d="M30.6602 30.5117V31.1798" stroke="#00539E" stroke-width="0.874763" stroke-miterlimit="10"/>
<path d="M30.6602 32.793V33.461" stroke="#00539E" stroke-width="0.874763" stroke-miterlimit="10"/>
<path d="M30.6602 35.1875V35.8556" stroke="#00539E" stroke-width="0.874763" stroke-miterlimit="10"/>
<path d="M30.6602 28.125V28.7931" stroke="#00539E" stroke-width="0.874763" stroke-miterlimit="10"/>
<path d="M5.49219 29.7188V30.3868" stroke="#00539E" stroke-width="0.874763" stroke-miterlimit="10"/>
<path d="M5.49219 32.1094V32.7774" stroke="#00539E" stroke-width="0.874763" stroke-miterlimit="10"/>
<path d="M5.49219 34.3867V35.0548" stroke="#00539E" stroke-width="0.874763" stroke-miterlimit="10"/>
<path d="M5.49219 27.3281V27.9962" stroke="#00539E" stroke-width="0.874763" stroke-miterlimit="10"/>
<path d="M10.7305 37.125V37.796" stroke="#00539E" stroke-width="0.874763" stroke-miterlimit="10"/>
<path d="M10.7305 34.7266V35.3975" stroke="#00539E" stroke-width="0.874763" stroke-miterlimit="10"/>
<path d="M21.0938 32.4492V33.1173" stroke="#00539E" stroke-width="0.874763" stroke-miterlimit="10"/>
<path d="M21.0938 34.8438V35.5118" stroke="#00539E" stroke-width="0.874763" stroke-miterlimit="10"/>
<path d="M21.0938 37.2383V37.9063" stroke="#00539E" stroke-width="0.874763" stroke-miterlimit="10"/>
<path d="M21.0938 30.0586V30.7267" stroke="#00539E" stroke-width="0.874763" stroke-miterlimit="10"/>
<path d="M24.8516 32.4492V33.1173" stroke="#00539E" stroke-width="0.874763" stroke-miterlimit="10"/>
<path d="M24.8516 34.8438V35.5118" stroke="#00539E" stroke-width="0.874763" stroke-miterlimit="10"/>
<path d="M24.8516 37.2383V37.9063" stroke="#00539E" stroke-width="0.874763" stroke-miterlimit="10"/>
<path d="M24.8516 30.0586V30.7267" stroke="#00539E" stroke-width="0.874763" stroke-miterlimit="10"/>
<path d="M27.7496 39.3817V1.76082L26.1167 1.18639C24.5072 0.620705 22.8247 0.332031 21.1189 0.332031C19.4132 0.332031 17.7307 0.620705 16.1212 1.18639L14.4883 1.76082V39.3788" stroke="#00539E" stroke-width="0.874763" stroke-miterlimit="10" stroke-linecap="round"/>
<path d="M25.3466 3.33325C24.9908 9.35165 23.3317 12.53 22.454 13.8188C22.1537 14.262 21.6492 14.5215 21.1127 14.5215C20.5762 14.5215 20.0718 14.262 19.7714 13.8188C18.8908 12.53 17.2346 9.35165 16.8789 3.33325C19.6198 2.36808 22.6086 2.36808 25.3495 3.33325H25.3466Z" stroke="#00539E" stroke-width="0.874763" stroke-miterlimit="10" stroke-linecap="round"/>
<path d="M5.49219 16.1545V12.0664" stroke="#00539E" stroke-width="0.874763" stroke-miterlimit="10" stroke-linecap="round"/>
<path d="M33.5156 24.5898V39.3676" stroke="#00539E" stroke-width="0.874763" stroke-miterlimit="10" stroke-linecap="round"/>
<path d="M14.4852 32.793H7.65625V39.3625" stroke="#00539E" stroke-width="0.874763" stroke-miterlimit="10" stroke-linecap="round"/>
<path d="M31.5781 22.5869V16.2507C31.5781 15.7637 31.9718 15.3672 32.4616 15.3672H40.7456C41.2325 15.3672 41.6291 15.7637 41.6291 16.2507V39.3358" stroke="#00539E" stroke-width="0.874763" stroke-miterlimit="10" stroke-linecap="round"/>
</g>
<defs>
<clipPath id="clip0_2831_75081">
<rect width="42" height="39.9361" fill="white" transform="translate(0.015625)"/>
</clipPath>
</defs>
</svg>
