<svg width="42" height="42" viewBox="0 0 42 42" fill="none" xmlns="http://www.w3.org/2000/svg">
<path d="M7.62895 8.89761L8.85122 11.4242L11.6239 11.8015C12.1735 11.8753 12.3704 12.5562 11.993 12.9171L9.96684 14.8613L10.4672 17.6175C10.5657 18.1589 9.99145 18.5691 9.51567 18.3066L7.04653 16.9777L4.57739 18.3066C4.10161 18.5609 3.50278 18.1671 3.63403 17.5765L4.12622 14.8531L2.10005 12.9089C1.7063 12.5316 1.91958 11.8589 2.47739 11.7851L5.24184 11.4078L6.46411 8.88121C6.6938 8.39722 7.39927 8.40543 7.62895 8.89761ZM7.82583 12.3101L7.04653 10.6859L6.25903 12.3101C6.1688 12.4988 5.98012 12.6464 5.75864 12.6793L3.97856 12.9171L5.28286 14.164C5.43052 14.3117 5.51255 14.525 5.47153 14.7464L5.15161 16.5183L6.72661 15.6734C6.91528 15.575 7.15317 15.5586 7.35005 15.6734L8.93325 16.5265L8.62153 14.7875C8.57231 14.5742 8.62973 14.3363 8.802 14.164L10.1063 12.9171L8.34262 12.6793C8.12934 12.6546 7.92427 12.5152 7.82583 12.3101ZM21.5907 2.95035L22.8129 5.47691L25.5938 5.85425C26.1434 5.92808 26.3403 6.60894 25.9629 6.97808L23.9368 8.92222L24.4372 11.6785C24.5356 12.2199 23.9614 12.63 23.4856 12.3675L21 11.0386L18.5309 12.3675C18.0551 12.6218 17.4563 12.2281 17.5875 11.6375L18.0797 8.91402L16.0454 6.96988C15.6516 6.59254 15.8649 5.91988 16.4227 5.84605L19.1872 5.46871L20.4094 2.95035C20.6555 2.44996 21.3528 2.45816 21.5907 2.95035ZM21.7875 6.36285L21 4.73863L20.2207 6.36285C20.1305 6.55152 19.9418 6.69918 19.7204 6.73199L17.9321 6.96988L19.2364 8.21675C19.3922 8.36441 19.4661 8.57769 19.425 8.79918L19.1051 10.5711L20.6883 9.72613C20.877 9.62769 21.1067 9.61129 21.3118 9.72613L22.895 10.5793L22.5832 8.84019C22.534 8.62691 22.5915 8.38902 22.7637 8.21675L24.068 6.96988L22.3043 6.72379C22.0829 6.70738 21.886 6.56793 21.7875 6.36285ZM35.5442 8.89761L36.7665 11.4242L39.5391 11.8015C40.0887 11.8753 40.2938 12.5562 39.9082 12.9171L37.8821 14.8613L38.3825 17.6175C38.4809 18.1589 37.9067 18.5691 37.4309 18.3066L34.9618 16.9777L32.4926 18.3066C32.0168 18.5609 31.418 18.1671 31.5411 17.5765L32.0332 14.8531L30.0071 12.9089C29.6133 12.5316 29.8266 11.8589 30.3844 11.7851L33.1489 11.4078L34.3711 8.88121C34.609 8.39722 35.3145 8.40543 35.5442 8.89761ZM35.7411 12.3101L34.9618 10.6859L34.1743 12.3101C34.084 12.4988 33.9036 12.6464 33.6739 12.6793L31.8938 12.9171L33.1899 14.164C33.3375 14.3117 33.4196 14.525 33.3786 14.7464L33.0586 16.5183L34.6418 15.6734C34.8305 15.575 35.0684 15.5586 35.2653 15.6734L36.8567 16.5265L36.545 14.7875C36.4957 14.5742 36.5532 14.3363 36.7254 14.164L38.0215 12.9171L36.2579 12.6793C36.0446 12.6546 35.8395 12.5152 35.7411 12.3101ZM17.9567 25.6484C17.7762 25.3367 17.8829 24.9347 18.1946 24.7543C18.5063 24.5738 18.9082 24.6804 19.0887 24.9921L19.95 26.4851L23.0098 23.4253C23.2641 23.1711 23.6825 23.1711 23.9368 23.4253C24.1911 23.6796 24.1911 24.098 23.9368 24.3523L20.27 28.0191C19.9665 28.3226 19.4579 28.257 19.2446 27.8878L17.9567 25.6484ZM21 18.7168C24.5684 18.7168 27.4641 21.6125 27.4641 25.1808C27.4641 28.7492 24.5684 31.6449 21 31.6449C17.4317 31.6449 14.536 28.7492 14.536 25.1808C14.536 21.6125 17.4317 18.7168 21 18.7168ZM24.6422 21.5386C22.6325 19.5289 19.3676 19.5289 17.3579 21.5386C15.3481 23.5484 15.3481 26.8132 17.3579 28.823C19.3676 30.8328 22.6325 30.8328 24.6422 28.823C26.652 26.805 26.652 23.5484 24.6422 21.5386ZM21 14.6562C26.8079 14.6562 31.5165 19.3648 31.5165 25.1726C31.5165 27.371 30.8438 29.4136 29.6872 31.1035L32.829 36.5421C33.1325 37.0507 32.7141 37.625 32.1727 37.5429L28.9571 37.0343L27.2344 39.1507C26.9309 39.5445 26.3649 39.4789 26.1434 39.0851L23.945 35.2789C22.0254 35.8367 19.9665 35.8367 18.0551 35.2789L15.8567 39.0851C15.6352 39.4789 15.0692 39.5445 14.7657 39.1507L13.043 37.0343L9.82739 37.5429C9.27778 37.6332 8.89223 37.0343 9.15473 36.5668L12.3129 31.1035C9.45825 26.9281 9.99145 21.3089 13.568 17.7324C15.4629 15.8375 18.0961 14.6562 21 14.6562ZM28.8176 32.2109C27.8168 33.3265 26.5864 34.2207 25.1918 34.8277L26.7997 37.6086L28.1778 35.9187C28.3336 35.7218 28.5715 35.648 28.8012 35.689L31.0161 36.0418L28.8176 32.2109ZM16.8 34.8277C15.4137 34.2207 14.1832 33.3265 13.1825 32.2191L10.9758 36.0418L13.1907 35.689C13.4122 35.648 13.6582 35.73 13.8141 35.9187L15.1922 37.6086L16.8 34.8277ZM27.5133 18.6675C23.9204 15.0746 18.0879 15.0746 14.495 18.6675C10.902 22.2605 10.902 28.0929 14.495 31.6859C18.0961 35.2789 23.9204 35.2789 27.5133 31.6859C31.1063 28.0929 31.1063 22.2605 27.5133 18.6675Z" fill="#00539E"/>
</svg>
